<?xml version="1.0" encoding="utf-8"?>
<!-- Generator: Adobe Illustrator 19.2.1, SVG Export Plug-In . SVG Version: 6.00 Build 0)  -->
<svg version="1.1" id="Layer_1" xmlns="http://www.w3.org/2000/svg" xmlns:xlink="http://www.w3.org/1999/xlink" x="0px" y="0px"
	 viewBox="0 0 439.7 143.5" style="enable-background:new 0 0 439.7 143.5;" xml:space="preserve">
<style type="text/css">
	.st0{fill:#FBB040;}
	.st1{opacity:0.2;clip-path:url(#XMLID_2_);fill:#D11A21;}
	.st2{opacity:0.1;clip-path:url(#XMLID_2_);fill:none;stroke:#A7A9AC;stroke-width:0.2523;stroke-miterlimit:10;}
	.st3{fill:#F7941E;}
	.st4{clip-path:url(#XMLID_3_);fill:none;stroke:#610000;stroke-width:0.291;stroke-miterlimit:10;}
	.st5{clip-path:url(#XMLID_3_);fill:none;stroke:#860304;stroke-width:0.291;stroke-miterlimit:10;}
	.st6{fill:#A7A9AC;}
	.st7{opacity:0.2;clip-path:url(#XMLID_4_);fill:#D11A21;}
	.st8{opacity:0.1;clip-path:url(#XMLID_4_);fill:none;stroke:#A7A9AC;stroke-width:0.2523;stroke-miterlimit:10;}
	.st9{clip-path:url(#XMLID_9_);fill:none;stroke:#610000;stroke-width:0.291;stroke-miterlimit:10;}
	.st10{clip-path:url(#XMLID_9_);fill:none;stroke:#860304;stroke-width:0.291;stroke-miterlimit:10;}
	.st11{fill:none;}
</style>
<g>
	<path class="st0" d="M398.5,55.4c2.7-9.5,4.2-14.8,4.5-15.9c0-0.3,0.1-0.5,0.1-0.6c0-1.7-1.6-2.7-2.8-3c-0.4-0.1-0.8-0.1-1.1-0.1
		c-1.7,0-2.9,0.7-3.6,2.2c-0.7,1.3-1.1,2.5-1.9,5.2l-1,3.3l-1.3,5l-1.5,5.9c0,0.3-0.2,1-0.3,1.3c-0.1,0.2-0.2,0.3-0.3,0.3
		c-0.1,0-0.3-0.1-0.6-0.2c-1-0.5-1.7-0.7-2.1-0.8c-0.5-0.1-1-0.2-1.7-0.2c-0.6,0-1,0-1.2,0.1c-1,0.2-2.2,0.6-3.3,1.3
		c-1.3,0.7-2.5,1.7-3.6,2.8c-1.1,1.1-2,2.5-2.8,4c-1.1,2-2.4,3.8-4,5.5c-1.6,1.7-2.9,2.8-4.1,3.3c-0.4,0.2-0.8,0.4-1.1,0.6
		c-0.4,0.2-0.9,0.4-1.4,0.7c-0.2,0.1-0.4,0.2-0.6,0.2c-0.5,0-0.9-0.3-1-0.8c0,0,0-0.1,0-0.3c0-3.1,0.7-6.2,0.7-9.3
		c0-0.9,0-1.7-0.1-2.5c-0.2-1.3-0.6-2.3-1.2-3.1c-1.3-1.9-3.2-2.4-5.4-1.6c-1.7,0.6-3.3,1.5-4.6,2.8c-1.9,1.9-3.3,4.3-4.9,6.5
		c-0.6,0.9-1.1,1.5-1.4,1.8c0,0-0.1,0-0.1,0c-0.6,0-0.3-4.5-4-4.5c-0.2,0-0.4,0-0.6,0c-2.1,0.4-4.3,1.7-5.8,3.1
		c-1.6,1.4-3.1,3-4.7,4.4c-1.5,1.4-3.3,2.2-5.2,3.1c-1.3,0.6-2.3,0.9-2.7,0.9c-0.6,0-0.9-0.4-0.9-1.1v-0.5c0.4-2.3,1-5,2-8.2
		c1-3.2,1.5-5.2,1.5-6c0-0.2,0-0.3,0-0.5c-0.2-1.8-2-2.7-3.9-2.7c-0.6,0-1.1,0.1-1.6,0.3c-0.7,0.5-1.7,3.6-2.6,7.1
		c-0.4,1.7-0.7,2.8-0.8,3.1l-0.3,1.4l-0.3,1.3l-0.4,1.1c-0.3,1.2-0.5,1.2-1,2c-0.4,0.7-0.8,0.8-1.5,1.3c-0.7,0.4-1.5,0.5-2.4,0.5
		c-1.2,0-1.8-0.9-1.8-2.6c0-1.2,0.3-2.9,0.8-5.1c0.5-2.1,1.3-4.8,1.6-6c0.2-0.6,0.3-1.1,0.3-1.6c0-0.3-0.1-0.7-0.2-1.2
		c-0.4-1.1-1.3-1.6-2.7-1.6c-0.3,0-0.7,0-1,0.1c-1.6,0.3-2.6,1.3-3.2,3l-0.3,1.6v0.1l0,0c-0.7,2.3-2,4.8-4.1,7.5
		c-2.1,2.6-3.9,4.3-5.5,5c-0.6,0.3-1.1,0.6-1.5,0.9c0.2-0.3,0.4-0.6,0.5-1c1.1-2.4,1.6-4.8,1.6-7.3v-0.4c-0.2-3.1-1.1-5.5-2.8-7.1
		c-1.7-1.7-3.7-2.6-6.1-2.6c-2.3,0-4.6,0.8-6.7,2.5c-2.2,1.6-3.9,3.9-5.1,7c-0.9,2.1-1.3,4.2-1.3,6.3c0,0.7,0,1.1,0.1,1.8
		c-0.1,0-1.7,0.5-2.9,1.1c-1.3,0.6-2.1,1-2.5,1c-0.5,0-0.8-0.2-1-0.7c-0.1-0.4-0.2-0.8-0.2-1.2c0-1.2,0.6-2.5,1.9-4
		c2.3-2.8,3.3-4.2,3.3-5.3c0-0.4-0.2-0.7-0.5-1c-0.8-0.8-2.4-1.6-4.6-2.3c-2.2-0.8-3.9-1.7-5.2-2.9c0-0.1,0-0.3,0-0.7
		c0-2.2-1-6.9-4.1-7.8c-0.3,0-0.5-0.1-0.7-0.1c-1,0-1.9,0.6-2.6,1.9c-0.7,1.2-1,2.5-1,3.9v0.5c0,0.6,0.3,1.6,0.7,2.7
		c0.4,1.1,0.7,1.9,0.7,2.3c0,0.2,0,0.3,0,0.4c-0.4,0.8-0.6,1.7-1,2.6c-0.5,1-1,1.9-1.6,2.8c-1.1,1.7-2.4,3.3-3.9,4.7
		c-0.7,0.7-1.5,1.4-2.4,1.9c-0.9,0.6-1.9,0.9-2.8,1.6l-2.8,1.8c-1.5,0.9-2.8,1.8-3.9,2.6l0.6-1.8l2.1-7.8c0.2-0.6,0.3-1.2,0.5-1.7
		c0,0,0.2-0.6,0.5-1.8c0.3-1.2,0.6-2.4,0.9-3.8c0.3-1.4,0.5-2.3,0.5-2.8c0-0.1,0-0.1,0-0.2c-0.2-1.2-1.6-1.8-3.1-1.8h-0.3
		c-1,0-2.5,0.6-2.7,0.6c-0.1,0-0.2,0-0.3-0.1c-1-0.9-2.4-1.3-4.2-1.3c-1.6,0-3.3,0.5-5.1,1.5c-1,0.6-2.2,1.6-3.5,2.9
		c-1.1,1.1-1.9,2.4-2.6,3.9c-0.4,0.9-0.7,1.7-1,2.6c-1.4,4.4-1.7,11.1,3.2,13.5c0.8,0.4,1.6,0.7,2.5,0.8c1.4,0.2,2.7,0,4.1-0.2
		c0,0,0.1,0,0.1,0.2c0,0.5-0.2,1.1-0.6,1.9c0,0.3-1.7,1.5-5,4.3c-1.6,1.4-3.1,2.9-4.6,4.5c-2,2.2-3.6,4.7-4.6,7.5
		c-1,2.8-1.6,5.3-1.6,7.5c0,0.3,0,0.8,0.1,1.3l0.3,1.5l0.4,1.4c0.2,0.7,0.4,1.3,0.7,1.6c0.7,1.2,2.3,2.8,4.8,3.1
		c0.3,0,0.7,0.1,1,0.1c1.3,0,2.6-0.3,4.3-1.4c1.8-1,3.6-3.3,4.9-6.5c0.3-0.5,0.8-2.2,1.6-5.2c0.8-3,1.6-6.3,2.6-9.9
		c0.9-3.6,1.4-5.5,1.5-5.9c1.9-1.6,3.8-3,5.7-4.4c2-1.3,3.4-2.3,4.3-2.9c2.1-1.3,4.2-2.5,6.1-4c2.9-2.3,5.4-4.9,7.6-7.8
		c0.7-0.9,1.4-2.4,2-3.4c2.1,0.9,3.1,1.6,3.1,2c0,0.5-1.7,1.9-2.9,4.5c-0.9,2.5-1.7,5.8-0.2,8.2c0.7,1.2,1.5,1.9,2.9,2
		c3.4,0.4,6.8-0.4,9.6-2.3c0.8-0.5,2.2-1.6,2.3-1.4c1.2,1.7,2.6,2.8,4.4,3.3c1.3,0.3,2.6,0.4,3.9,0.4c2.6,0,5.2-0.2,7.7-0.9
		c3-0.9,5.9-2.4,8.4-4.4c0.4-0.3,0.9-0.7,1.3-1c0.2-0.2,0.4-0.3,0.6-0.5c0.1-0.1,0.5-0.4,0.5-0.5c0,0.1,0,0.3,0,0.4
		c0.2,2.4,1.1,4.2,2.7,5.3c1.6,1.1,3.4,1.7,5.5,1.7c2.3,0,4-0.6,5.1-1.6c0.7-1,0,0.8,1.3,1.4c0.6,0.2,1.3,0.3,2.3,0.3
		c2.2,0,4.4-0.5,6.4-1.3c1-0.4,2-1,3-1.4c1-0.4,2-1,2.9-1.6c1.1-0.8,2.1-1.7,3.1-2.6c0.5-0.5,0.9-0.9,1.4-1.4c0.3-0.3,0.8-1,1.3-1
		c0,0,0.1,0,0.1,0c0.1,0,0.1,0.1,0.1,0.3s-0.2,1.1-0.6,2.6c-0.4,1.5-0.6,2.6-0.6,3.4c0,0.7,0.1,1.3,0.4,1.6C337,84,341,84,343,82.2
		c1.7-1.5,3.1-3.3,4.6-5c1.1-1.4,2.2-2.7,3.3-4.1c0.8-1,1.5-2.1,2.4-2.9c0,0,0,0,0.1,0c0.1,0,0.1,0.4,0.1,1.2c0,0.7,0,1.8-0.1,3.3
		c-0.1,1.4-0.1,2.2-0.1,2.3c0,0.2,0,0.5,0,0.9c0,2.7,2.3,4.9,6.5,4.9c0.6,0,1,0,1.3,0c1.5-0.2,2.9-0.7,4.2-1.4
		c2.5-1.4,4.7-2.8,6.9-4.6c0.2,1.1,0.7,2.1,1.2,3c0.6,1.1,1.6,1.9,2.6,2.5c0.7,0.4,1.6,0.7,2.5,0.8c0.5,0.1,1,0.1,1.6,0.1
		c0.7,0,1.6-0.1,2.4-0.2c0.7-0.1,1.2-0.3,1.6-0.5c0.3-0.1,0.8-0.3,1.3-0.6l1.1-0.5c0,0,0.2,0.3,0.2,0.3l0.3,0.4
		c0.1,0.1,0.3,0.3,0.5,0.4c0.3,0.2,0.9,0.4,1.6,0.5c0.9,0.1,1.6,0.2,2.2,0.2h0.3c0.8,0,1.6,0,2.2-0.2c0.8-0.1,1.4-0.3,1.9-0.4
		c1.7-0.5,3-1.1,3.9-1.7c0.6-0.5,1.1-0.9,1.4-1.3c0.3-0.5,0.5-0.8,0.5-1c0.1-0.3,0.2-0.5,0.2-0.7c0-0.2,0.1-0.3,0.1-0.4
		c0-0.4-0.2-1-0.5-1.6c-0.1-0.3-0.5-0.5-1-0.6H400c-0.6,0-1.6,0.5-1.7,0.5c-0.1,0.1-1.6,0.7-1.8,0.9c-0.1,0.1-0.6,0.3-1.3,0.5
		c0,0-0.2,0-0.4,0s-0.3,0-0.4-0.1c-0.3-0.2-0.4-0.4-0.6-0.7c-0.1-0.3-0.2-0.7-0.2-1.2c0-0.9,0.1-1.8,0.4-2.9
		C394.3,70.4,395.8,64.9,398.5,55.4z M222.1,103.6c-0.9,3.1-1.8,4.7-2.7,4.7c-0.1,0-0.1,0-0.1,0c-0.7,0-1-0.7-1-1.8
		c0-1.4,0.3-2.9,0.9-4.7c0.9-2.6,2.9-5.3,6-7.9L222.1,103.6z M232.3,65.5c-0.2,0.7-0.5,1.9-0.8,3.3c-0.3,1.4-0.6,2.5-0.8,3.2
		c-0.4,1.4-1.3,3.1-2.3,3.6c-0.6,0.3-1.3,0.5-1.9,0.5c-1.5,0-2.6-1-2.6-2.3c0.2-4.1,1.8-7.1,4.9-9.2c0.4-0.2,0.9-0.3,1.4-0.3
		C231.2,64.4,232.3,64.9,232.3,65.5L232.3,65.5z M286.1,73.6c-1,1.8-2.3,2.7-4,2.7c-0.1,0-0.4,0-0.8-0.1c-1.2-0.4-1.7-1.4-1.7-3
		c0-1.5,0.3-2.8,0.9-3.9c0.3-0.7,1-1.7,2.1-2.8c1.1-1.1,2.2-1.7,3.1-1.7c0.8,0,1.4,0.5,1.9,1.4c0.2,0.5,0.3,1,0.3,1.8
		C287.6,69.9,287.1,71.8,286.1,73.6z M386.9,68.3c0,1-0.2,1.9-0.5,2.8c-0.8,1.6-1.3,2.6-1.6,3c-0.8,0.9-1.9,1.5-3,1.6
		c-0.1,0-0.3,0-0.6,0c-0.3,0-0.6,0-0.7-0.1c-0.5-0.2-0.8-0.5-1-0.7c-0.3-0.3-0.5-0.8-0.6-1.4c0-0.1,0-0.3,0-0.5c0-0.4,0-0.7,0.1-1.1
		c0.4-1.6,1.2-3.2,2.5-4.7c0.5-0.7,1-1.1,1.6-1.5c0.3-0.3,0.6-0.5,0.9-0.6c0.3-0.2,0.7-0.3,1-0.3h0.3c0.3,0,0.6,0.1,0.8,0.2
		c0.1,0,0.3,0.2,0.5,0.4c0.1,0.2,0.2,0.4,0.3,0.6c0.1,0.4,0.2,0.9,0.2,1.5C386.9,67.7,386.9,68.1,386.9,68.3z"/>
	<path d="M74.3,79c1.1-0.8,2.3-1.8,3.6-2.9c-1.1,5.1-7.1,26.5-10.7,39.1c-0.2,0.6-0.3,1.1-0.3,1.7c0,1.3,0.6,2.1,1.8,2.5
		c0.1,0,0.4,0.1,0.7,0.1c0.7,0,1.5-0.3,2.3-0.8c0.8-0.5,1.3-1,1.5-1.5l9.8-33.6l1.1-3.8c0.1,0.7,0.7,1.1,1.6,1.5
		c2.6,1.1,5.5,1.7,8.8,1.7c3.1,0,6.2-0.5,9.2-1.6c2.8-1,5-2.8,7.4-4.6c0,0.4-0.1,0.8-0.1,1.3c0,1.4,0.3,3.2,1.4,4.2
		c0.9,0.7,2,0.8,3,0.9h0.8c2.9,0,5.5-0.9,8.1-2.1c0.6-0.3,6.2-3.2,6.1-3.3c0.2,0.6,0.5,1.3,0.9,1.8c0.7,1.1,1.6,1.9,2.7,2.5
		c0.7,0.4,1.6,0.7,2.5,0.8c0.5,0.1,1.1,0.1,1.6,0.1c0.7,0,1.6-0.1,2.5-0.2c0.7-0.1,1.2-0.3,1.6-0.5c0.3-0.1,0.8-0.3,1.4-0.6l1.1-0.5
		c0,0,0.2,0.3,0.2,0.4c0.2,0.3,0.3,0.4,0.3,0.4c0.1,0.1,0.3,0.3,0.5,0.4c0.4,0.2,0.9,0.4,1.6,0.5c3.3,0.5,6.7-0.2,9.7-1.6
		c0.9-0.4,7.8-4.1,7.6-5.2c0.9,4.6,3.5,7,7.6,7c1.5,0,2.8-0.2,3.8-0.7h0v0c0,0-0.2,0.7-0.3,1.1c-0.4,1.3-0.7,2.7-1,4.1
		c-8.9,4-18.4,7.5-24.4,15.1c-5.1,6.4-6.2,17.5,4.1,18.9c8.1,1.1,15.7-4.7,19.8-11.3c1.2-1.9,2.1-3.9,2.9-5.9
		c1.6-4.2,2.4-8.5,3.5-13c0.1-0.4,4.7-3.1,4.9-3.3c3.2-2.2,3-1.8,6.1-4.1c5-3.7,10.2-7.9,14.5-12.4c0.7-0.8,1.8-2.7,1-3.7
		c-1.3-1.9-2.4-1.2-3.4-0.3c-5.8,5.1-14.3,11.9-20.9,15.8c-0.1,0-0.1,0.1-0.2,0.1c1.6-5.8,7.3-22.4,7.3-23.4V60
		c-0.4-1.4-1.8-2.6-3.2-2.6h-0.1c-1,0-2,0.4-3,1.1c-1,0.6-1.7,1.4-1.9,2.3l-1.6,6.8c-0.6,2.2-1,3.7-1.2,4.4
		c-0.9,2.6-2.2,3.9-3.7,3.9c-0.3,0-0.7,0-1-0.1c-1.3-0.4-1.9-1.3-1.9-2.7c0-0.8,0.3-2.6,0.9-5.1c0.5-2.2,1.4-4.8,1.7-6.1
		c0.2-0.6,0.3-1.1,0.3-1.6c0-0.3-0.1-0.7-0.2-1.2c-0.4-1.1-1.3-1.7-2.8-1.7c-0.4,0-0.7,0-1.1,0.1c-1.6,0.3-2.7,1.3-3.3,3
		c-0.1,0.6-0.5,1.8-1.1,3.6v0l0,0c-1,2.2-2.4,4.4-4.3,6.6c-1.8,2.2-3.4,3.6-4.8,4.2c-0.5,0.3-1,0.5-1.4,0.8
		c-0.1,0.1-0.2,0.1-0.4,0.2c-1.2,0.6-2.1,1-2.7,1.1h-0.1c-0.5,0-0.8-0.2-0.9-0.7c-0.1-0.4-0.2-0.8-0.2-1.3c0-0.7,0.1-1.7,0.4-2.9
		c0.4-1.7,1-3.4,1.7-5c0.7-1.4,2.2-3.2,1.9-4.9c-0.2-1.5-1.9-2.2-3.1-2.8c-0.3-0.2-0.7-0.4-1.2-0.5c-1.1-0.3-1.6-0.4-2.6,0.3
		c0,0-0.2,0.1-0.2,0.1h-0.3c-0.1,0-0.2,0-0.2,0c-0.2,0-0.7-0.4-0.9-0.4c-1-0.5-1.9-0.8-2.7-1c-0.5-0.1-1.1-0.2-1.7-0.2
		c-0.6,0-1,0-1.2,0.1c-1.1,0.2-2.2,0.6-3.4,1.3c-3.5,1.9-5.7,5.3-7.9,8.6c-1.9,2.7-4,5.3-6.8,7.2c-1.2,0.9-6.4,4.4-6.7,1v-1.5
		c0-1.5,0.2-2.9,0.6-4.4c2.8-2.2,5.5-5.3,8.1-9.3c3.7-5.4,6.6-11.5,6.6-18.2c0-5.1-1.9-8.7-5.9-8.8c-2.8,0-5,1.4-6.6,4
		c-2.8,4.6-4,10-5.1,15.2c-0.6,2.9-1.2,5.9-1.9,9.2c-0.7,3.2-1.1,5.3-1.3,6.2c-2.9,4.2-7.3,8.9-12.9,8.9h0c-0.3,0-0.5-0.1-0.5-0.3
		c0-0.5,0.8-1.4,1.1-1.8c1.7-3.4,1.7-7.7,0.5-11.3c-0.6-1.7-1.5-3-2.7-3.8c-1.3-0.9-2.7-1.3-4.3-1.3c-1.5,0-2.7,0.4-3.6,1.1
		C89,58,88,57.2,86.2,57.2c-0.6,0-1.2,0.1-1.8,0.3c-1.1,0.4-2.6,1.5-3,3.2l-0.4,1.5c-0.7,2.3-2.1,4.9-4.2,7.6
		c-1.9,2.4-4.4,4.4-7.2,5.5c-4.1,1.7-8.6,0.5-11-3.3c-0.7-1.1-1.2-2.9-2.4-3.7c-1.2-0.8-2.8,0.5-3.1,1.7c-0.4,1.2,0.6,2.9,1.1,3.9
		c0.3,0.5,0.6,1.2,1,1.7c1.9,2.8,4.7,4.8,8.1,5.5C66.9,81.7,71.2,81.2,74.3,79z M122.9,46.1c0.2-0.9,0.7-1.9,1.3-3
		c0.7-1.1,1.3-1.7,1.8-1.7c0.5,0,0.7,0.6,0.7,1.8v0.1c0,2.3-0.6,5.1-1.8,8.4c-1.2,3.3-3.1,6.6-5.7,9.7L122.9,46.1z M92.2,74
		c-1.4,1.6-3.8,1.7-6.3,0.4c0.4-2.4,0.5-5.7,2.4-7.5c0.7-0.6,1.4-0.9,2.2-0.9c0.9,0,1.6,0.4,2.1,1.3c0.5,1,0.7,2,0.7,3.1
		C93.3,72,92.9,73.2,92.2,74z M144.6,73c-0.2,0.3-0.5,0.7-1,1.2c-0.9,1-1.9,1.6-3,1.7c-0.1,0-0.3,0-0.6,0c-0.3,0-0.6,0-0.7-0.1
		c-0.5-0.2-0.8-0.5-1.1-0.7c-0.3-0.4-0.5-0.8-0.6-1.5c0-0.1,0-0.3,0-0.5c0-0.4,0-0.7,0.1-1.1c0.4-1.6,1.2-3.2,2.6-4.8
		c0.5-0.7,1.1-1.1,1.6-1.5c0.3-0.3,0.6-0.5,0.9-0.6c0.3-0.2,0.7-0.3,1.1-0.4h0.3c0.4,0,0.6,0.1,0.8,0.2c0.3,0.1,1,0.8,1,1.4
		C145.9,69.9,145,72.5,144.6,73z M172.1,96.9c-2,4.9-3.8,10.5-7.9,14c-2.4,2.1-8.5,5.4-10.3,0.8c-1.8-4.5,12-12.6,14.9-14.3
		c1.3-0.8,2.6-1.5,3.9-2.2C172.5,95.9,172.3,96.4,172.1,96.9z"/>
	<g>
		<g>
			<defs>
				<path id="XMLID_8_" d="M51.3,55.1c0.1,0.1,0.1,0.2,0.1,0.2l7.5,16.5c0.3,0.6,0,1.4-0.7,1.7l-2.5,1.1c-0.7,0.3-1.5,0.1-1.8-0.6
					l-7.5-16.5c0-0.1-0.1-0.2-0.1-0.2"/>
			</defs>
			<use xlink:href="#XMLID_8_"  style="overflow:visible;"/>
			<clipPath id="XMLID_2_">
				<use xlink:href="#XMLID_8_"  style="overflow:visible;"/>
			</clipPath>
			<path class="st1" d="M51.8,69.7c0.3,0.6,1.6,0.6,3,0s2.3-1.7,2-2.3l-0.4-1c0.3,0.6-0.6,1.7-2,2.3c-1.4,0.6-2.8,0.6-3,0L51.8,69.7
				z"/>
			<path class="st1" d="M48.3,62c0.3,0.6,1.6,0.6,3,0c1.4-0.6,2.3-1.7,2-2.3l-0.4-1c0.3,0.6-0.6,1.7-2,2.3s-2.8,0.6-3,0L48.3,62z"/>
			<path class="st2" d="M50.1,65.9c0.3,0.6,1.6,0.6,3,0c1.4-0.6,2.3-1.7,2-2.3"/>
		</g>
		<ellipse transform="matrix(0.9105 -0.4135 0.4135 0.9105 -18.9462 25.2445)" class="st3" cx="48.9" cy="56.4" rx="2.8" ry="1.2"/>
		<g>
			<g>
				<defs>
					<path id="XMLID_7_" d="M50,55.6l-0.2-0.4c0,0,0,0,0,0c-0.4-0.9-0.8-1.7-1.2-2.6c-0.4-1-0.9-1.9-1.3-2.9
						c-0.2-0.4-0.4-0.8-0.6-1.2c-0.1-0.3-0.3-1-0.7-1.1c-0.3-0.1-0.8,0.2-1.1,0.3c-0.3,0.2-0.9,0.4-1,0.7c-0.1,0.3,0.1,0.6,0.2,0.9
						c0.2,0.3,0.3,0.7,0.5,1c0.4,0.9,0.8,1.7,1.2,2.6c0.5,1.1,1,2.3,1.5,3.4l0.2,0.4c0.1,0.2,0.3,0.4,0.5,0.5c0.4,0,0.8-0.1,1.2-0.3
						c0.3-0.1,0.6-0.4,0.8-0.6C50.1,56.1,50.1,55.8,50,55.6z"/>
				</defs>
				<use xlink:href="#XMLID_7_"  style="overflow:visible;fill:#A7A9AC;"/>
				<clipPath id="XMLID_3_">
					<use xlink:href="#XMLID_7_"  style="overflow:visible;"/>
				</clipPath>
				<path class="st4" d="M44.8,51.3c0,0,1.7,0,2.8-1.4"/>
				<path class="st4" d="M44.1,49.6c0,0,1.7,0,2.8-1.4"/>
				<path class="st5" d="M44.8,51.3c0,0,1.7,0,2.8-1.4"/>
				<path class="st5" d="M44.1,49.6c0,0,1.7,0,2.8-1.4"/>
			</g>
			<path class="st6" d="M44.6,47.4c-0.4,0.2-0.8,0.3-0.9,0.3c-0.4,0-0.5-0.1-0.5-0.5c0-0.4,0-0.7,0-1.1c0-0.3,0-0.6,0.3-0.7
				c0.2-0.1,0.5-0.3,0.7-0.3c0.2,0,0.4,0.2,0.5,0.3c0.2,0.1,0.4,0.3,0.5,0.5c0.1,0.2,0.3,0.3,0.4,0.5C45.9,46.8,45.3,47.2,44.6,47.4
				z"/>
			<path class="st6" d="M44,48.4c0.1-0.4-0.1-0.9-0.2-1.2c0.4-0.2,0.8-0.4,1.3-0.7c0.3,0.5,0.6,0.8,1.1,1c0.1,0.5-1.1,1-1.4,1.1
				c-0.2,0.1-0.4,0.1-0.7,0.1C44,48.7,44,48.5,44,48.4z"/>
		</g>
	</g>
	<g>
		<g>
			<defs>
				<path id="XMLID_6_" d="M218.9,58.9c0,0.1-0.1,0.2-0.2,0.2l-12.5,13.1c-0.5,0.5-1.3,0.5-1.9,0l-2-1.9c-0.6-0.5-0.6-1.4-0.1-1.9
					l12.5-13.1c0.1-0.1,0.1-0.1,0.2-0.2"/>
			</defs>
			<use xlink:href="#XMLID_6_"  style="overflow:visible;"/>
			<clipPath id="XMLID_4_">
				<use xlink:href="#XMLID_6_"  style="overflow:visible;"/>
			</clipPath>
			<path class="st7" d="M205.6,64.8c-0.5,0.5,0,1.8,1.1,2.8c1.1,1.1,2.4,1.5,2.9,1l0.8-0.8c-0.5,0.5-1.8,0-2.9-1
				c-1.1-1.1-1.6-2.3-1.1-2.8L205.6,64.8z"/>
			<path class="st7" d="M211.4,58.7c-0.5,0.5,0,1.8,1.1,2.8c1.1,1.1,2.4,1.5,2.9,1l0.8-0.8c-0.5,0.5-1.8,0-2.9-1s-1.6-2.3-1.1-2.8
				L211.4,58.7z"/>
			<path class="st8" d="M208.4,61.8c-0.5,0.5,0,1.8,1.1,2.8c1.1,1.1,2.4,1.5,2.9,1"/>
		</g>
		<ellipse transform="matrix(0.6909 -0.723 0.723 0.6909 25.7321 174.3741)" class="st3" cx="216.8" cy="57.1" rx="1.2" ry="2.8"/>
		<g>
			<g>
				<defs>
					<path id="XMLID_5_" d="M217.9,57.9l0.3-0.4c0,0,0,0,0,0c0.7-0.7,1.3-1.4,2-2.1c0.7-0.8,1.5-1.5,2.2-2.3c0.3-0.3,0.6-0.7,0.9-1
						c0.2-0.3,0.8-0.7,0.8-1.1c0-0.3-0.5-0.7-0.7-0.9c-0.3-0.3-0.7-0.7-1.1-0.7c-0.3,0-0.5,0.3-0.7,0.5c-0.3,0.3-0.5,0.5-0.8,0.8
						c-0.6,0.7-1.3,1.4-1.9,2c-0.9,0.9-1.7,1.8-2.6,2.7l-0.3,0.3c-0.2,0.2-0.3,0.4-0.3,0.6c0.2,0.4,0.4,0.7,0.7,1
						c0.3,0.2,0.5,0.4,0.8,0.6C217.5,58.1,217.7,58,217.9,57.9z"/>
				</defs>
				<use xlink:href="#XMLID_5_"  style="overflow:visible;fill:#A7A9AC;"/>
				<clipPath id="XMLID_9_">
					<use xlink:href="#XMLID_5_"  style="overflow:visible;"/>
				</clipPath>
				<path class="st9" d="M220,51.5c0,0,0.6,1.6,2.3,2.1"/>
				<path class="st9" d="M221.3,50.1c0,0,0.6,1.6,2.3,2.1"/>
				<path class="st10" d="M220,51.5c0,0,0.6,1.6,2.3,2.1"/>
				<path class="st10" d="M221.3,50.1c0,0,0.6,1.6,2.3,2.1"/>
			</g>
			<path class="st6" d="M223.5,49.8c-0.3-0.3-0.5-0.6-0.6-0.7c-0.2-0.4-0.1-0.5,0.3-0.7c0.3-0.1,0.7-0.3,1-0.4
				c0.3-0.1,0.5-0.2,0.8,0c0.2,0.1,0.5,0.4,0.5,0.6c0,0.2,0,0.4-0.1,0.6c-0.1,0.2-0.1,0.4-0.2,0.7c-0.1,0.2-0.2,0.4-0.3,0.5
				C224.6,50.8,224,50.3,223.5,49.8z"/>
			<path class="st6" d="M222.4,49.6c0.4,0,0.8-0.4,1-0.6c0.3,0.4,0.7,0.6,1.1,0.9c-0.3,0.4-0.5,0.8-0.5,1.4
				c-0.4,0.3-1.3-0.6-1.6-0.9c-0.1-0.1-0.3-0.4-0.3-0.6C222.1,49.7,222.3,49.6,222.4,49.6z"/>
		</g>
	</g>
	<path class="st11" d="M297,81.8c1.1-0.2,2.1-1,3-1.4"/>
	<path class="st11" d="M296.4,82c0.8,0.1,1.8-0.6,2.5-0.9c0.5-0.2,1.1-0.6,1.6-0.8"/>
</g>
</svg>
